<svg xmlns="http://www.w3.org/2000/svg" viewBox="0 0 256 256" role="img" aria-labelledby="title desc">
  <title id="title">Y2K cell phone charm</title>
  <desc id="desc">A silver flip phone charm with pink heart and star details.</desc>
  <defs>
    <linearGradient id="phoneBody" x1="62" y1="22" x2="192" y2="224" gradientUnits="userSpaceOnUse">
      <stop offset="0" stop-color="#fff7ff"/>
      <stop offset="0.26" stop-color="#d6d7e4"/>
      <stop offset="0.55" stop-color="#9aa0b8"/>
      <stop offset="1" stop-color="#f7bddf"/>
    </linearGradient>
    <linearGradient id="screen" x1="92" y1="44" x2="160" y2="98" gradientUnits="userSpaceOnUse">
      <stop offset="0" stop-color="#d6fbff"/>
      <stop offset="1" stop-color="#ff7ec7"/>
    </linearGradient>
    <filter id="shadow" x="-20%" y="-20%" width="140%" height="150%">
      <feDropShadow dx="0" dy="12" stdDeviation="10" flood-color="#6d0f50" flood-opacity="0.28"/>
    </filter>
  </defs>
  <path d="M184 34c22 10 38 34 37 65-2 53-49 55-45 95 2 20-17 40-48 40-59 0-92-50-92-101 0-71 81-127 148-99Z" fill="#ffdbef" opacity=".72"/>
  <g filter="url(#shadow)">
    <path d="M85 28h84c11 0 20 9 20 20v79c0 11-9 20-20 20H85c-11 0-20-9-20-20V48c0-11 9-20 20-20Z" fill="url(#phoneBody)" stroke="#fff" stroke-width="5"/>
    <path d="M91 48h72c5 0 9 4 9 9v40c0 5-4 9-9 9H91c-5 0-9-4-9-9V57c0-5 4-9 9-9Z" fill="url(#screen)" stroke="#5b2351" stroke-opacity=".25" stroke-width="3"/>
    <path d="M84 145h88c9 0 16 7 16 16v49c0 11-9 20-20 20H88c-11 0-20-9-20-20v-49c0-9 7-16 16-16Z" fill="url(#phoneBody)" stroke="#fff" stroke-width="5"/>
    <path d="M91 166h74" stroke="#6d0f50" stroke-opacity=".28" stroke-width="5" stroke-linecap="round"/>
    <g fill="#fff8fc" stroke="#7a2a66" stroke-opacity=".28" stroke-width="2">
      <circle cx="96" cy="184" r="8"/>
      <circle cx="128" cy="184" r="8"/>
      <circle cx="160" cy="184" r="8"/>
      <circle cx="96" cy="209" r="8"/>
      <circle cx="128" cy="209" r="8"/>
      <circle cx="160" cy="209" r="8"/>
    </g>
    <path d="M128 167c10 0 18 8 18 18s-8 18-18 18-18-8-18-18 8-18 18-18Z" fill="#ff43a7" stroke="#fff7ff" stroke-width="4"/>
    <path d="M128 192s-14-8-14-17c0-5 3-8 8-8 3 0 5 2 6 4 1-2 3-4 6-4 5 0 8 3 8 8 0 9-14 17-14 17Z" fill="#fff7fd"/>
    <path d="m174 28 8 16 18 3-13 12 3 18-16-8-16 8 3-18-13-12 18-3 8-16Z" fill="#ffe47a" stroke="#fff9ec" stroke-width="4"/>
    <path d="M82 55c18-14 40-19 67-15" fill="none" stroke="#fff" stroke-linecap="round" stroke-width="5" opacity=".62"/>
  </g>
  <path d="M203 49c13 0 23 10 23 23s-10 23-23 23-23-10-23-23 10-23 23-23Z" fill="#ff8ccb" stroke="#fff7fd" stroke-width="5"/>
  <path d="M203 62v20M193 72h20" stroke="#fff7fd" stroke-width="5" stroke-linecap="round"/>
</svg>
